<?xml version="1.0" encoding="UTF-8" standalone="no"?>
<svg
   viewBox="0 0 140.91517 117.08001"
   version="1.1"
   id="svg831"
   width="140.91516"
   height="117.08001"
   xmlns="http://www.w3.org/2000/svg"
   xmlns:svg="http://www.w3.org/2000/svg"
   xmlns:rdf="http://www.w3.org/1999/02/22-rdf-syntax-ns#"
   xmlns:cc="http://creativecommons.org/ns#"
   xmlns:dc="http://purl.org/dc/elements/1.1/">
  <defs
     id="defs742">
    <style
       id="style740">.cls-1{fill:#3b7383;opacity:0.33;}.cls-2{fill:#a185bc;}.cls-3{fill:#917ab1;}.cls-4{fill:#673c90;}.cls-5{fill:#b05ea0;}</style>
  </defs>
  <title
     id="title744">LOGOS OCT 2018</title>
  <g
     id="Layer_1"
     data-name="Layer 1"
     transform="translate(-0.62791271)">
    <path
       class="cls-1"
       d="m 85.65,37.72 a 40.12,40.12 0 0 0 -6.32,0.51 39.74,39.74 0 0 1 -33.28,40.61 39.69,39.69 0 0 0 33.21,37.71 41,41 0 0 0 6.49,0.53 39.68,39.68 0 0 0 6.39,-78.83 41,41 0 0 0 -6.49,-0.53"
       id="path746" />
    <path
       class="cls-2"
       d="m 39.63,0 a 39.68,39.68 0 0 0 0.1,79.35 39,39 0 0 0 6.32,-0.51 A 39.69,39.69 0 0 1 79.33,38.23 39.7,39.7 0 0 0 39.63,0"
       id="path748" />
    <path
       class="cls-3"
       d="M 79.33,38.23 A 39.69,39.69 0 0 0 46.05,78.84 39.74,39.74 0 0 0 79.33,38.23"
       id="path750" />
    <path
       class="cls-4"
       d="m 106.25,76.77 a 5.31,5.31 0 0 0 0,-0.68 c 0,-0.19 0,-0.38 0,-0.57 0,-0.19 -0.06,-0.5 -0.1,-0.74 A 8,8 0 0 0 106,73.95 c 0,-0.15 -0.05,-0.3 -0.09,-0.45 -0.04,-0.15 -0.07,-0.33 -0.11,-0.49 l -0.09,-0.32 a 5.62,5.62 0 0 0 -0.15,-0.55 c 0,-0.19 -0.11,-0.37 -0.17,-0.55 l -0.08,-0.24 c -0.08,-0.22 -0.15,-0.44 -0.23,-0.65 L 105,70.5 c -0.1,-0.25 -0.2,-0.49 -0.31,-0.73 V 69.7 c -0.09,-0.2 -0.18,-0.41 -0.29,-0.61 l -0.14,-0.3 -0.27,-0.52 L 103.7,68 q -0.12,-0.22 -0.27,-0.45 a 4.11,4.11 0 0 0 -0.24,-0.39 c -0.08,-0.14 -0.17,-0.28 -0.26,-0.42 l -0.17,-0.23 c -0.14,-0.22 -0.29,-0.43 -0.45,-0.64 -0.16,-0.21 -0.33,-0.43 -0.5,-0.65 l -0.12,-0.14 c -0.14,-0.17 -0.29,-0.35 -0.45,-0.52 l -0.15,-0.17 c -0.17,-0.18 -0.33,-0.36 -0.51,-0.54 l -0.06,-0.06 c -0.19,-0.2 -0.39,-0.39 -0.6,-0.59 L 99.28,62.62 99.2,62.56 C 98.99,62.38 98.77,62.2 98.55,62.04 98.33,61.88 98.08,61.68 97.84,61.51 h -0.06 l -0.7,-0.47 -0.78,-0.47 c -0.26,-0.15 -0.53,-0.3 -0.81,-0.44 l -0.82,-0.4 C 94.29,59.55 93.9,59.39 93.5,59.23 L 93,59 c -0.26,-0.1 -0.52,-0.18 -0.79,-0.26 -0.27,-0.08 -0.62,-0.19 -1,-0.27 L 91,58.4 C 90.73,58.33 90.44,58.27 90.15,58.22 A 9.3,9.3 0 0 0 89.23,58.06 H 89.14 A 39.66,39.66 0 0 1 64.49,44.5 v 0 A 39.87,39.87 0 0 1 57.87,33.59 l -0.21,-0.5 A 19.94,19.94 0 0 0 23.91,28.28 c -0.19,0.26 -0.39,0.51 -0.59,0.76 a 20,20 0 0 0 -2.7,18.78 v 0 c 0.13,0.29 0.25,0.58 0.36,0.88 v 0 a 19.9,19.9 0 0 0 15.47,11.91 v 0 a 39.57,39.57 0 0 1 8.76,2.28 c 0.62,0.23 1.22,0.48 1.81,0.75 v 0 c 0.57,0.26 1.14,0.53 1.69,0.81 v 0 h 0.06 v 0 a 40,40 0 0 1 18.85,20.2 v 0.06 c 0.14,0.33 0.27,0.66 0.4,1 0.13,0.34 0.31,0.69 0.49,1 0.18,0.31 0.29,0.56 0.44,0.84 l 0.15,0.26 v 0 c 0.14,0.25 0.3,0.5 0.46,0.74 0.16,0.24 0.37,0.56 0.57,0.83 l 0.25,0.34 v 0 c 0.18,0.24 0.37,0.47 0.56,0.7 0.19,0.23 0.48,0.57 0.73,0.84 v 0 c 0.25,0.27 0.51,0.53 0.78,0.79 0.27,0.26 0.55,0.51 0.85,0.76 0.3,0.25 0.58,0.48 0.88,0.72 l 0.58,0.42 c 0.33,0.23 0.67,0.46 1,0.66 0.33,0.2 0.54,0.33 0.81,0.48 l 0.62,0.33 1,0.47 1,0.41 c 0.35,0.13 0.71,0.26 1.07,0.37 l 0.67,0.19 0.53,0.14 0.38,0.09 0.62,0.13 0.92,0.16 h 0.09 l 0.93,0.11 a 20,20 0 0 0 21.53,-17 20.34,20.34 0 0 0 0.32,-3.72 z"
       id="path752" />
    <path
       class="cls-5"
       d="M 82.62,97.58 A 20.4,20.4 0 1 1 106.06,80.77 20.4,20.4 0 0 1 82.62,97.58 Z"
       id="path754" />
    <path
       class="cls-4"
       d="M 118.52,49.7 A 19.81,19.81 0 1 1 141.28,33.37 19.82,19.82 0 0 1 118.52,49.7 Z"
       id="path756" />
  </g>
  <metadata
     id="metadata835">
    <rdf:RDF>
      <cc:Work
         rdf:about="">
        <dc:title>LOGOS OCT 2018</dc:title>
      </cc:Work>
    </rdf:RDF>
  </metadata>
</svg>
